<mxfile host="app.diagrams.net" modified="2021-10-21T06:05:42.041Z" agent="5.0 (Windows NT 10.0; Win64; x64) AppleWebKit/537.36 (KHTML, like Gecko) Chrome/94.0.4606.81 Safari/537.36 Edg/94.0.992.50" etag="wz4cUx1lMwm2r7Pv0VmJ" version="15.5.6" type="github">
  <diagram id="QVs43y1Sz6sYipbBfKue" name="第1頁">
    <mxGraphModel dx="1038" dy="547" grid="1" gridSize="10" guides="1" tooltips="1" connect="1" arrows="1" fold="1" page="1" pageScale="1" pageWidth="1654" pageHeight="2336" math="0" shadow="0">
      <root>
        <mxCell id="0" />
        <mxCell id="1" parent="0" />
        <mxCell id="-ri3SPqbiJr1r50t-2qO-125" style="edgeStyle=orthogonalEdgeStyle;rounded=0;orthogonalLoop=1;jettySize=auto;html=1;entryX=0.5;entryY=0;entryDx=0;entryDy=0;fontColor=#000000;" edge="1" parent="1" source="-ri3SPqbiJr1r50t-2qO-1" target="-ri3SPqbiJr1r50t-2qO-2">
          <mxGeometry relative="1" as="geometry" />
        </mxCell>
        <mxCell id="-ri3SPqbiJr1r50t-2qO-1" value="學生端: 課程預約&lt;br&gt;&lt;span style=&quot;color: rgb(32 , 33 , 36) ; font-family: &amp;#34;consolas&amp;#34; , &amp;#34;lucida console&amp;#34; , &amp;#34;courier new&amp;#34; , monospace ; text-align: left ; background-color: rgb(255 , 255 , 255)&quot;&gt;stdselct_admin.php&lt;/span&gt;" style="ellipse;whiteSpace=wrap;html=1;" vertex="1" parent="1">
          <mxGeometry x="302.5" y="110" width="120" height="50" as="geometry" />
        </mxCell>
        <mxCell id="-ri3SPqbiJr1r50t-2qO-5" style="edgeStyle=orthogonalEdgeStyle;rounded=0;orthogonalLoop=1;jettySize=auto;html=1;entryX=0.5;entryY=0;entryDx=0;entryDy=0;" edge="1" parent="1" source="-ri3SPqbiJr1r50t-2qO-2" target="-ri3SPqbiJr1r50t-2qO-4">
          <mxGeometry relative="1" as="geometry" />
        </mxCell>
        <mxCell id="-ri3SPqbiJr1r50t-2qO-2" value="抓課程預約的類別&lt;br&gt;(下面五類)" style="rounded=1;whiteSpace=wrap;html=1;" vertex="1" parent="1">
          <mxGeometry x="302.5" y="220" width="120" height="60" as="geometry" />
        </mxCell>
        <mxCell id="-ri3SPqbiJr1r50t-2qO-88" style="edgeStyle=orthogonalEdgeStyle;rounded=0;orthogonalLoop=1;jettySize=auto;html=1;entryX=0.5;entryY=0;entryDx=0;entryDy=0;fontColor=#000000;" edge="1" parent="1" source="-ri3SPqbiJr1r50t-2qO-4" target="-ri3SPqbiJr1r50t-2qO-82">
          <mxGeometry relative="1" as="geometry" />
        </mxCell>
        <mxCell id="-ri3SPqbiJr1r50t-2qO-89" style="edgeStyle=orthogonalEdgeStyle;rounded=0;orthogonalLoop=1;jettySize=auto;html=1;exitX=0.25;exitY=1;exitDx=0;exitDy=0;entryX=0.5;entryY=0;entryDx=0;entryDy=0;fontColor=#000000;" edge="1" parent="1" source="-ri3SPqbiJr1r50t-2qO-4" target="-ri3SPqbiJr1r50t-2qO-80">
          <mxGeometry relative="1" as="geometry" />
        </mxCell>
        <mxCell id="-ri3SPqbiJr1r50t-2qO-90" style="edgeStyle=orthogonalEdgeStyle;rounded=0;orthogonalLoop=1;jettySize=auto;html=1;entryX=0.5;entryY=0;entryDx=0;entryDy=0;fontColor=#000000;" edge="1" parent="1" source="-ri3SPqbiJr1r50t-2qO-4" target="-ri3SPqbiJr1r50t-2qO-79">
          <mxGeometry relative="1" as="geometry" />
        </mxCell>
        <mxCell id="-ri3SPqbiJr1r50t-2qO-91" style="edgeStyle=orthogonalEdgeStyle;rounded=0;orthogonalLoop=1;jettySize=auto;html=1;exitX=0.75;exitY=1;exitDx=0;exitDy=0;entryX=0.5;entryY=0;entryDx=0;entryDy=0;fontColor=#000000;" edge="1" parent="1" source="-ri3SPqbiJr1r50t-2qO-4" target="-ri3SPqbiJr1r50t-2qO-84">
          <mxGeometry relative="1" as="geometry" />
        </mxCell>
        <mxCell id="-ri3SPqbiJr1r50t-2qO-92" style="edgeStyle=orthogonalEdgeStyle;rounded=0;orthogonalLoop=1;jettySize=auto;html=1;entryX=0.5;entryY=0;entryDx=0;entryDy=0;fontColor=#000000;" edge="1" parent="1" source="-ri3SPqbiJr1r50t-2qO-4" target="-ri3SPqbiJr1r50t-2qO-86">
          <mxGeometry relative="1" as="geometry" />
        </mxCell>
        <mxCell id="-ri3SPqbiJr1r50t-2qO-4" value="依照使用者所選的課程的去把該課程的語言別及上課時段抓出來" style="rounded=1;whiteSpace=wrap;html=1;" vertex="1" parent="1">
          <mxGeometry x="472.5" y="310" width="120" height="60" as="geometry" />
        </mxCell>
        <mxCell id="-ri3SPqbiJr1r50t-2qO-116" style="edgeStyle=orthogonalEdgeStyle;rounded=0;orthogonalLoop=1;jettySize=auto;html=1;entryX=0.5;entryY=0;entryDx=0;entryDy=0;fontColor=#000000;" edge="1" parent="1" source="-ri3SPqbiJr1r50t-2qO-39" target="-ri3SPqbiJr1r50t-2qO-43">
          <mxGeometry relative="1" as="geometry" />
        </mxCell>
        <mxCell id="-ri3SPqbiJr1r50t-2qO-39" value="扣堂數，在老師端那裏開啟這位同學的師生留言版" style="rounded=1;whiteSpace=wrap;html=1;fontColor=#000000;" vertex="1" parent="1">
          <mxGeometry x="472.5" y="1120" width="120" height="60" as="geometry" />
        </mxCell>
        <mxCell id="-ri3SPqbiJr1r50t-2qO-41" value="確定" style="text;html=1;align=center;verticalAlign=middle;resizable=0;points=[];autosize=1;strokeColor=none;fillColor=none;fontColor=#000000;" vertex="1" parent="1">
          <mxGeometry x="495" y="980" width="40" height="20" as="geometry" />
        </mxCell>
        <mxCell id="-ri3SPqbiJr1r50t-2qO-46" style="edgeStyle=orthogonalEdgeStyle;rounded=0;orthogonalLoop=1;jettySize=auto;html=1;fontColor=#000000;" edge="1" parent="1" source="-ri3SPqbiJr1r50t-2qO-43" target="-ri3SPqbiJr1r50t-2qO-47">
          <mxGeometry relative="1" as="geometry">
            <mxPoint x="407.5" y="1240" as="targetPoint" />
          </mxGeometry>
        </mxCell>
        <mxCell id="-ri3SPqbiJr1r50t-2qO-53" style="edgeStyle=orthogonalEdgeStyle;rounded=0;orthogonalLoop=1;jettySize=auto;html=1;entryX=0;entryY=0.5;entryDx=0;entryDy=0;fontColor=#000000;" edge="1" parent="1" source="-ri3SPqbiJr1r50t-2qO-43" target="-ri3SPqbiJr1r50t-2qO-51">
          <mxGeometry relative="1" as="geometry" />
        </mxCell>
        <mxCell id="-ri3SPqbiJr1r50t-2qO-43" value="是否第一次預約" style="rhombus;whiteSpace=wrap;html=1;fontColor=#000000;" vertex="1" parent="1">
          <mxGeometry x="472.5" y="1220" width="120" height="80" as="geometry" />
        </mxCell>
        <mxCell id="-ri3SPqbiJr1r50t-2qO-47" value="寄信給老師跟學生，通知老師有人預約課程。&lt;br&gt;通知學生預約成功" style="rounded=1;whiteSpace=wrap;html=1;fontColor=#000000;" vertex="1" parent="1">
          <mxGeometry x="472.5" y="1360" width="120" height="60" as="geometry" />
        </mxCell>
        <mxCell id="-ri3SPqbiJr1r50t-2qO-48" value="不是" style="text;html=1;align=center;verticalAlign=middle;resizable=0;points=[];autosize=1;strokeColor=none;fillColor=none;fontColor=#000000;" vertex="1" parent="1">
          <mxGeometry x="527.5" y="1310" width="40" height="20" as="geometry" />
        </mxCell>
        <mxCell id="-ri3SPqbiJr1r50t-2qO-54" style="edgeStyle=orthogonalEdgeStyle;rounded=0;orthogonalLoop=1;jettySize=auto;html=1;entryX=1;entryY=0.5;entryDx=0;entryDy=0;fontColor=#000000;" edge="1" parent="1" source="-ri3SPqbiJr1r50t-2qO-51" target="-ri3SPqbiJr1r50t-2qO-47">
          <mxGeometry relative="1" as="geometry">
            <Array as="points">
              <mxPoint x="697.5" y="1390" />
            </Array>
          </mxGeometry>
        </mxCell>
        <mxCell id="-ri3SPqbiJr1r50t-2qO-51" value="寄信給管理員，告知有同學首次預約某位老師課程" style="rounded=1;whiteSpace=wrap;html=1;fontColor=#000000;" vertex="1" parent="1">
          <mxGeometry x="641" y="1230" width="120" height="60" as="geometry" />
        </mxCell>
        <mxCell id="-ri3SPqbiJr1r50t-2qO-56" value="是" style="text;html=1;align=center;verticalAlign=middle;resizable=0;points=[];autosize=1;strokeColor=none;fillColor=none;fontColor=#000000;" vertex="1" parent="1">
          <mxGeometry x="592.5" y="1240" width="30" height="20" as="geometry" />
        </mxCell>
        <mxCell id="-ri3SPqbiJr1r50t-2qO-79" value="&lt;span&gt;1對1(30分鐘)&lt;/span&gt;&lt;br&gt;&lt;span&gt;選項:&lt;/span&gt;&lt;br&gt;&lt;span&gt;語言別,&lt;/span&gt;&lt;br&gt;&lt;span&gt;老師(用輸入的不是用選的),&lt;/span&gt;&lt;br&gt;&lt;span&gt;時段(幾點~幾點)&lt;/span&gt;" style="rounded=0;whiteSpace=wrap;html=1;fontColor=#000000;rotation=0;" vertex="1" parent="1">
          <mxGeometry x="192.5" y="410" width="120" height="100" as="geometry" />
        </mxCell>
        <mxCell id="-ri3SPqbiJr1r50t-2qO-80" value="&lt;span&gt;1對1(60分鐘)&lt;/span&gt;&lt;br&gt;&lt;span&gt;選項:&lt;/span&gt;&lt;br&gt;&lt;span&gt;語言別,&lt;/span&gt;&lt;br&gt;&lt;span&gt;老師(用輸入的不是用選的),&lt;/span&gt;&lt;br&gt;&lt;span&gt;時段&lt;/span&gt;(幾點~幾點)" style="rounded=0;whiteSpace=wrap;html=1;fontColor=#000000;rotation=0;" vertex="1" parent="1">
          <mxGeometry x="335" y="410" width="120" height="100" as="geometry" />
        </mxCell>
        <mxCell id="-ri3SPqbiJr1r50t-2qO-96" style="edgeStyle=orthogonalEdgeStyle;rounded=0;orthogonalLoop=1;jettySize=auto;html=1;entryX=0.5;entryY=0;entryDx=0;entryDy=0;fontColor=#000000;" edge="1" parent="1" source="-ri3SPqbiJr1r50t-2qO-82" target="-ri3SPqbiJr1r50t-2qO-93">
          <mxGeometry relative="1" as="geometry" />
        </mxCell>
        <mxCell id="-ri3SPqbiJr1r50t-2qO-82" value="每週團課&lt;br&gt;&lt;span&gt;選項:&lt;/span&gt;&lt;br&gt;&lt;span&gt;語言別,&lt;/span&gt;&lt;br&gt;&lt;span&gt;時段(幾點幾分-幾點幾分)&lt;/span&gt;" style="rounded=0;whiteSpace=wrap;html=1;fontColor=#000000;rotation=0;" vertex="1" parent="1">
          <mxGeometry x="472.5" y="410" width="120" height="100" as="geometry" />
        </mxCell>
        <mxCell id="-ri3SPqbiJr1r50t-2qO-84" value="每月團課&lt;br&gt;&lt;span&gt;選項:&lt;/span&gt;&lt;br&gt;&lt;span&gt;語言別&lt;/span&gt;" style="rounded=0;whiteSpace=wrap;html=1;fontColor=#000000;rotation=0;" vertex="1" parent="1">
          <mxGeometry x="612.5" y="410" width="120" height="100" as="geometry" />
        </mxCell>
        <mxCell id="-ri3SPqbiJr1r50t-2qO-86" value="免費口說&lt;br&gt;&lt;span&gt;選項:&lt;/span&gt;&lt;br&gt;日期(年/月/日(星期))" style="rounded=0;whiteSpace=wrap;html=1;fontColor=#000000;rotation=0;" vertex="1" parent="1">
          <mxGeometry x="752.5" y="410" width="120" height="100" as="geometry" />
        </mxCell>
        <mxCell id="-ri3SPqbiJr1r50t-2qO-113" style="edgeStyle=orthogonalEdgeStyle;rounded=0;orthogonalLoop=1;jettySize=auto;html=1;entryX=0.5;entryY=0;entryDx=0;entryDy=0;fontColor=#000000;" edge="1" parent="1" source="-ri3SPqbiJr1r50t-2qO-93" target="-ri3SPqbiJr1r50t-2qO-112">
          <mxGeometry relative="1" as="geometry" />
        </mxCell>
        <mxCell id="-ri3SPqbiJr1r50t-2qO-93" value="按下查詢" style="rounded=1;whiteSpace=wrap;html=1;fontColor=#000000;" vertex="1" parent="1">
          <mxGeometry x="472.5" y="530" width="120" height="60" as="geometry" />
        </mxCell>
        <mxCell id="-ri3SPqbiJr1r50t-2qO-106" style="edgeStyle=orthogonalEdgeStyle;rounded=0;orthogonalLoop=1;jettySize=auto;html=1;entryX=0.5;entryY=0;entryDx=0;entryDy=0;fontColor=#000000;" edge="1" parent="1" source="-ri3SPqbiJr1r50t-2qO-104">
          <mxGeometry relative="1" as="geometry">
            <mxPoint x="532.5" y="905" as="targetPoint" />
          </mxGeometry>
        </mxCell>
        <mxCell id="-ri3SPqbiJr1r50t-2qO-104" value="按下確定送出想選的課程及時段" style="rounded=1;whiteSpace=wrap;html=1;fontColor=#000000;" vertex="1" parent="1">
          <mxGeometry x="472.5" y="810" width="120" height="60" as="geometry" />
        </mxCell>
        <mxCell id="-ri3SPqbiJr1r50t-2qO-110" value="沒有" style="text;html=1;align=center;verticalAlign=middle;resizable=0;points=[];autosize=1;strokeColor=none;fillColor=none;fontColor=#000000;" vertex="1" parent="1">
          <mxGeometry x="327.5" y="910" width="40" height="20" as="geometry" />
        </mxCell>
        <mxCell id="-ri3SPqbiJr1r50t-2qO-118" style="edgeStyle=orthogonalEdgeStyle;rounded=0;orthogonalLoop=1;jettySize=auto;html=1;entryX=0.5;entryY=0;entryDx=0;entryDy=0;fontColor=#000000;" edge="1" parent="1" source="-ri3SPqbiJr1r50t-2qO-112" target="-ri3SPqbiJr1r50t-2qO-117">
          <mxGeometry relative="1" as="geometry" />
        </mxCell>
        <mxCell id="-ri3SPqbiJr1r50t-2qO-120" style="edgeStyle=orthogonalEdgeStyle;rounded=0;orthogonalLoop=1;jettySize=auto;html=1;fontColor=#000000;" edge="1" parent="1" source="-ri3SPqbiJr1r50t-2qO-112" target="-ri3SPqbiJr1r50t-2qO-121">
          <mxGeometry relative="1" as="geometry">
            <mxPoint x="410" y="660" as="targetPoint" />
          </mxGeometry>
        </mxCell>
        <mxCell id="-ri3SPqbiJr1r50t-2qO-122" value="" style="edgeStyle=orthogonalEdgeStyle;rounded=0;orthogonalLoop=1;jettySize=auto;html=1;fontColor=#000000;" edge="1" parent="1" source="-ri3SPqbiJr1r50t-2qO-112" target="-ri3SPqbiJr1r50t-2qO-121">
          <mxGeometry relative="1" as="geometry" />
        </mxCell>
        <mxCell id="-ri3SPqbiJr1r50t-2qO-112" value="判斷使用者有沒有買這個課程" style="rhombus;whiteSpace=wrap;html=1;fontColor=#000000;" vertex="1" parent="1">
          <mxGeometry x="462.5" y="620" width="140" height="80" as="geometry" />
        </mxCell>
        <mxCell id="-ri3SPqbiJr1r50t-2qO-115" value="可以" style="text;html=1;align=center;verticalAlign=middle;resizable=0;points=[];autosize=1;strokeColor=none;fillColor=none;fontColor=#000000;" vertex="1" parent="1">
          <mxGeometry x="540" y="700" width="40" height="20" as="geometry" />
        </mxCell>
        <mxCell id="-ri3SPqbiJr1r50t-2qO-119" value="" style="edgeStyle=orthogonalEdgeStyle;rounded=0;orthogonalLoop=1;jettySize=auto;html=1;fontColor=#000000;" edge="1" parent="1" source="-ri3SPqbiJr1r50t-2qO-117" target="-ri3SPqbiJr1r50t-2qO-104">
          <mxGeometry relative="1" as="geometry" />
        </mxCell>
        <mxCell id="-ri3SPqbiJr1r50t-2qO-117" value="出現所選擇的老師及時段" style="rounded=1;whiteSpace=wrap;html=1;fontColor=#000000;" vertex="1" parent="1">
          <mxGeometry x="472.5" y="730" width="120" height="50" as="geometry" />
        </mxCell>
        <mxCell id="-ri3SPqbiJr1r50t-2qO-121" value="顯示使用者沒辦法選這個課程" style="rounded=1;whiteSpace=wrap;html=1;fontColor=#000000;" vertex="1" parent="1">
          <mxGeometry x="287.5" y="630" width="120" height="60" as="geometry" />
        </mxCell>
        <mxCell id="-ri3SPqbiJr1r50t-2qO-123" value="不行" style="text;html=1;align=center;verticalAlign=middle;resizable=0;points=[];autosize=1;strokeColor=none;fillColor=none;fontColor=#000000;" vertex="1" parent="1">
          <mxGeometry x="422.5" y="640" width="40" height="20" as="geometry" />
        </mxCell>
        <mxCell id="-ri3SPqbiJr1r50t-2qO-128" style="edgeStyle=orthogonalEdgeStyle;rounded=0;orthogonalLoop=1;jettySize=auto;html=1;entryX=0.5;entryY=0;entryDx=0;entryDy=0;fontColor=#000000;" edge="1" parent="1" source="-ri3SPqbiJr1r50t-2qO-126" target="-ri3SPqbiJr1r50t-2qO-127">
          <mxGeometry relative="1" as="geometry" />
        </mxCell>
        <mxCell id="-ri3SPqbiJr1r50t-2qO-132" style="edgeStyle=orthogonalEdgeStyle;rounded=0;orthogonalLoop=1;jettySize=auto;html=1;entryX=0;entryY=0.25;entryDx=0;entryDy=0;fontColor=#000000;" edge="1" parent="1" source="-ri3SPqbiJr1r50t-2qO-126" target="-ri3SPqbiJr1r50t-2qO-2">
          <mxGeometry relative="1" as="geometry">
            <Array as="points">
              <mxPoint x="150" y="930" />
              <mxPoint x="150" y="235" />
            </Array>
          </mxGeometry>
        </mxCell>
        <mxCell id="-ri3SPqbiJr1r50t-2qO-126" value="&lt;span&gt;進到課程預約選擇確認頁面&lt;/span&gt;&lt;br&gt;&lt;span&gt;確定使用者是否真的要選&lt;/span&gt;" style="rounded=1;whiteSpace=wrap;html=1;fontColor=#000000;" vertex="1" parent="1">
          <mxGeometry x="472.5" y="900" width="120" height="60" as="geometry" />
        </mxCell>
        <mxCell id="-ri3SPqbiJr1r50t-2qO-129" style="edgeStyle=orthogonalEdgeStyle;rounded=0;orthogonalLoop=1;jettySize=auto;html=1;entryX=0.5;entryY=0;entryDx=0;entryDy=0;fontColor=#000000;" edge="1" parent="1" source="-ri3SPqbiJr1r50t-2qO-127" target="-ri3SPqbiJr1r50t-2qO-39">
          <mxGeometry relative="1" as="geometry" />
        </mxCell>
        <mxCell id="-ri3SPqbiJr1r50t-2qO-131" style="edgeStyle=orthogonalEdgeStyle;rounded=0;orthogonalLoop=1;jettySize=auto;html=1;fontColor=#000000;" edge="1" parent="1" source="-ri3SPqbiJr1r50t-2qO-127">
          <mxGeometry relative="1" as="geometry">
            <mxPoint x="300" y="260" as="targetPoint" />
            <Array as="points">
              <mxPoint x="110" y="1040" />
              <mxPoint x="110" y="260" />
            </Array>
          </mxGeometry>
        </mxCell>
        <mxCell id="-ri3SPqbiJr1r50t-2qO-127" value="判斷使用者堂數夠不夠" style="rhombus;whiteSpace=wrap;html=1;fontColor=#000000;" vertex="1" parent="1">
          <mxGeometry x="472.5" y="1000" width="120" height="80" as="geometry" />
        </mxCell>
        <mxCell id="-ri3SPqbiJr1r50t-2qO-130" value="夠" style="text;html=1;align=center;verticalAlign=middle;resizable=0;points=[];autosize=1;strokeColor=none;fillColor=none;fontColor=#000000;" vertex="1" parent="1">
          <mxGeometry x="535" y="1080" width="30" height="20" as="geometry" />
        </mxCell>
        <mxCell id="-ri3SPqbiJr1r50t-2qO-133" value="不夠" style="text;html=1;align=center;verticalAlign=middle;resizable=0;points=[];autosize=1;strokeColor=none;fillColor=none;fontColor=#000000;" vertex="1" parent="1">
          <mxGeometry x="290" y="1010" width="40" height="20" as="geometry" />
        </mxCell>
      </root>
    </mxGraphModel>
  </diagram>
</mxfile>
